<mxfile host="app.diagrams.net" agent="Mozilla/5.0 (Windows NT 10.0; Win64; x64) AppleWebKit/537.36 (KHTML, like Gecko) Chrome/136.0.0.0 YaBrowser/25.6.0.0 Safari/537.36" version="27.2.0">
  <diagram id="C5RBs43oDa-KdzZeNtuy" name="Page-1">
    <mxGraphModel dx="2018" dy="1112" grid="1" gridSize="10" guides="1" tooltips="1" connect="1" arrows="1" fold="1" page="1" pageScale="1" pageWidth="827" pageHeight="1169" math="0" shadow="0">
      <root>
        <mxCell id="WIyWlLk6GJQsqaUBKTNV-0" />
        <mxCell id="WIyWlLk6GJQsqaUBKTNV-1" parent="WIyWlLk6GJQsqaUBKTNV-0" />
        <mxCell id="HTfy7P6PiqTKFt0xs7T2-7" value="" style="edgeStyle=orthogonalEdgeStyle;rounded=0;orthogonalLoop=1;jettySize=auto;html=1;" edge="1" parent="WIyWlLk6GJQsqaUBKTNV-1" source="HTfy7P6PiqTKFt0xs7T2-0" target="HTfy7P6PiqTKFt0xs7T2-1">
          <mxGeometry relative="1" as="geometry" />
        </mxCell>
        <mxCell id="HTfy7P6PiqTKFt0xs7T2-0" value="Загрузка изображений" style="rounded=1;whiteSpace=wrap;html=1;" vertex="1" parent="WIyWlLk6GJQsqaUBKTNV-1">
          <mxGeometry x="360" y="40" width="120" height="60" as="geometry" />
        </mxCell>
        <mxCell id="HTfy7P6PiqTKFt0xs7T2-8" value="" style="edgeStyle=orthogonalEdgeStyle;rounded=0;orthogonalLoop=1;jettySize=auto;html=1;" edge="1" parent="WIyWlLk6GJQsqaUBKTNV-1" source="HTfy7P6PiqTKFt0xs7T2-1" target="HTfy7P6PiqTKFt0xs7T2-2">
          <mxGeometry relative="1" as="geometry" />
        </mxCell>
        <mxCell id="HTfy7P6PiqTKFt0xs7T2-1" value="Фильтрация шумов" style="rounded=1;whiteSpace=wrap;html=1;" vertex="1" parent="WIyWlLk6GJQsqaUBKTNV-1">
          <mxGeometry x="360" y="160" width="120" height="60" as="geometry" />
        </mxCell>
        <mxCell id="HTfy7P6PiqTKFt0xs7T2-9" value="" style="edgeStyle=orthogonalEdgeStyle;rounded=0;orthogonalLoop=1;jettySize=auto;html=1;" edge="1" parent="WIyWlLk6GJQsqaUBKTNV-1" source="HTfy7P6PiqTKFt0xs7T2-2" target="HTfy7P6PiqTKFt0xs7T2-3">
          <mxGeometry relative="1" as="geometry" />
        </mxCell>
        <mxCell id="HTfy7P6PiqTKFt0xs7T2-2" value="Нормализация яркости" style="rounded=1;whiteSpace=wrap;html=1;" vertex="1" parent="WIyWlLk6GJQsqaUBKTNV-1">
          <mxGeometry x="360" y="280" width="120" height="60" as="geometry" />
        </mxCell>
        <mxCell id="HTfy7P6PiqTKFt0xs7T2-10" value="" style="edgeStyle=orthogonalEdgeStyle;rounded=0;orthogonalLoop=1;jettySize=auto;html=1;" edge="1" parent="WIyWlLk6GJQsqaUBKTNV-1" source="HTfy7P6PiqTKFt0xs7T2-3" target="HTfy7P6PiqTKFt0xs7T2-4">
          <mxGeometry relative="1" as="geometry" />
        </mxCell>
        <mxCell id="HTfy7P6PiqTKFt0xs7T2-3" value="Увеличение контрастности" style="rounded=1;whiteSpace=wrap;html=1;" vertex="1" parent="WIyWlLk6GJQsqaUBKTNV-1">
          <mxGeometry x="360" y="400" width="120" height="60" as="geometry" />
        </mxCell>
        <mxCell id="HTfy7P6PiqTKFt0xs7T2-11" value="" style="edgeStyle=orthogonalEdgeStyle;rounded=0;orthogonalLoop=1;jettySize=auto;html=1;" edge="1" parent="WIyWlLk6GJQsqaUBKTNV-1" source="HTfy7P6PiqTKFt0xs7T2-4" target="HTfy7P6PiqTKFt0xs7T2-5">
          <mxGeometry relative="1" as="geometry" />
        </mxCell>
        <mxCell id="HTfy7P6PiqTKFt0xs7T2-4" value="Повышение резкости" style="rounded=1;whiteSpace=wrap;html=1;" vertex="1" parent="WIyWlLk6GJQsqaUBKTNV-1">
          <mxGeometry x="360" y="520" width="120" height="60" as="geometry" />
        </mxCell>
        <mxCell id="HTfy7P6PiqTKFt0xs7T2-12" value="" style="edgeStyle=orthogonalEdgeStyle;rounded=0;orthogonalLoop=1;jettySize=auto;html=1;" edge="1" parent="WIyWlLk6GJQsqaUBKTNV-1" source="HTfy7P6PiqTKFt0xs7T2-5" target="HTfy7P6PiqTKFt0xs7T2-6">
          <mxGeometry relative="1" as="geometry" />
        </mxCell>
        <mxCell id="HTfy7P6PiqTKFt0xs7T2-5" value="Изменение размера и разрешения" style="rounded=1;whiteSpace=wrap;html=1;" vertex="1" parent="WIyWlLk6GJQsqaUBKTNV-1">
          <mxGeometry x="360" y="640" width="120" height="60" as="geometry" />
        </mxCell>
        <mxCell id="HTfy7P6PiqTKFt0xs7T2-6" value="Сохранение изображения" style="rounded=1;whiteSpace=wrap;html=1;" vertex="1" parent="WIyWlLk6GJQsqaUBKTNV-1">
          <mxGeometry x="360" y="760" width="120" height="60" as="geometry" />
        </mxCell>
      </root>
    </mxGraphModel>
  </diagram>
</mxfile>
